<svg width="296" height="478" viewBox="0 0 296 478" fill="none" xmlns="http://www.w3.org/2000/svg">
<path d="M0 10C0 4.47715 4.47715 0 10 0H286C291.523 0 296 4.47715 296 10V468C296 473.523 291.523 478 286 478H183.287C180.666 478 178.15 476.971 176.28 475.134L2.99289 304.939C1.07845 303.059 0 300.488 0 297.805V10Z" fill="white"/>
<path d="M0 302.133L179 478L129.873 278.105C128.537 272.669 122.999 269.389 117.589 270.829L0 302.133Z" fill="#019C59"/>
<path d="M239.5 56.5L266 30M266 30H245M266 30V53" stroke="black" stroke-width="5" stroke-linejoin="bevel"/>
</svg>
